<?xml version="1.0" encoding="utf-8"?>
<!-- Generator: Adobe Illustrator 22.0.0, SVG Export Plug-In . SVG Version: 6.00 Build 0)  -->
<svg version="1.1"
	 id="Layer_1" inkscape:version="0.92.1 r15371" sodipodi:docname="icon.svg" xmlns:cc="http://creativecommons.org/ns#" xmlns:dc="http://purl.org/dc/elements/1.1/" xmlns:inkscape="http://www.inkscape.org/namespaces/inkscape" xmlns:rdf="http://www.w3.org/1999/02/22-rdf-syntax-ns#" xmlns:sodipodi="http://sodipodi.sourceforge.net/DTD/sodipodi-0.dtd" xmlns:svg="http://www.w3.org/2000/svg"
	 xmlns="http://www.w3.org/2000/svg" xmlns:xlink="http://www.w3.org/1999/xlink" x="0px" y="0px" viewBox="0 0 512 512"
	 style="enable-background:new 0 0 512 512;" xml:space="preserve">
<style type="text/css">
	.st0{opacity:0;fill:#FFFFFF;}
	.st1{opacity:0.45;clip-path:url(#SVGID_2_);fill:#2A8338;}
	.st2{fill:#FFFFFF;}
	.st3{fill:#121148;}
	.st4{fill:#00599B;}
</style>
<rect class="st0" width="512" height="512"/>
<sodipodi:namedview  bordercolor="#666666" borderopacity="1" gridtolerance="10" guidetolerance="10" id="namedview5" inkscape:current-layer="Layer_1" inkscape:cx="-8.6779661" inkscape:cy="256" inkscape:pageopacity="0" inkscape:pageshadow="2" inkscape:window-height="1001" inkscape:window-maximized="1" inkscape:window-width="1920" inkscape:window-x="-9" inkscape:window-y="-9" inkscape:zoom="0.4609375" objecttolerance="10" pagecolor="#ffffff" showgrid="false">
	</sodipodi:namedview>
<g>
	<g>
		<defs>
			<circle id="SVGID_1_" cx="256" cy="256" r="237.5"/>
		</defs>
		<use xlink:href="#SVGID_1_"  style="overflow:visible;fill:#3CA50D;"/>
		<clipPath id="SVGID_2_">
			<use xlink:href="#SVGID_1_"  style="overflow:visible;"/>
		</clipPath>
		<path class="st1" d="M491.1,290l-99-110.5c0,0-126.3-36-129.6-36S146,171.2,146,171.2l-33.6,34.3l81.5,84.9l20.8,18l-7.3,21.7
			l19.2,17.4l5.4,14.7l140.7,131.2c0,0,50.5,15.6,59.3-5.5l64.5-91L491.1,290z"/>
	</g>
	<path class="st2" d="M398.5,188.2l0.2,0c-1.1-0.3-1-1.3-1.4-2c-2.9-5.2-7.5-8.7-11.8-12.6c-22.6-20.5-48.7-34.7-78.1-42.9
		c-12.3-3.4-24.9-5.2-37.7-6.1c-4.9-0.3-9.8-1.8-14.8-0.5c-12.9,0-25.7,1.2-38.3,3.9c-30.3,6.4-57.8,19.2-81.9,38.7
		c-5.5,4.4-10.8,9.1-15.8,14.2c-10.4,10.6-8.4,24.7,4.7,35.2c0.6,0.1,1.2,0.2,1.2,1c0,0,0-0.3,0-0.3c11.1,4.1,20.1,1,28.4-7
		c16.1-15.7,35-26.8,56.4-33.8c14.7-4.8,29.9-7.2,45.3-7.4c1.4,0.1,2.9,0.3,4.3,0.4c25.8,0.7,49.8,7.4,72.2,20.4
		c11.5,6.7,21.2,15.4,31.2,24c11.7,10,29.1,6.1,34.9-7.8C399.9,200,400.2,194,398.5,188.2z"/>
	<path class="st3" d="M398.7,188.2c-1.1-0.3-1-1.3-1.4-2C398.3,186.5,398.8,187.2,398.7,188.2z"/>
	<path class="st3" d="M123.8,216c0.6,0.1,1.2,0.2,1.2,1C124.6,216.7,124.2,216.4,123.8,216z"/>
	<path class="st3" d="M171.2,263.2c1-0.3,1,0.5,1.2,1.1C172.1,263.9,171.6,263.6,171.2,263.2z"/>
	<path class="st3" d="M239.4,347.7c0.6-0.2,1.2-0.2,1.1,0.8C240.1,348.2,239.8,348,239.4,347.7z"/>
	<g>
		<path class="st2" d="M171.5,263.4L171.5,263.4c-0.1-0.1-0.1-0.2-0.3-0.1L171.5,263.4z"/>
		<path class="st2" d="M335.8,238.6c-22.3-22.1-49.1-33.5-80.7-33c-28.1,0.2-52.5,10-73.8,28.3c-9.4,8-13.6,17.2-9.6,29.3l-0.1,0.2
			c0.6,0,0.7,0.5,0.9,1c2.7,4.5,6.5,7.9,11.2,10.4c9.3,2.8,17.7,1.6,24.9-5.3c13-12.6,28.7-18.7,46.6-19.7
			c7.3,1.1,14.6,1.4,21.7,3.7c11.3,3.6,20.3,10.6,29.2,18c9.1,7.5,22.3,6.4,30-1.9C344.1,260.7,344.4,247.1,335.8,238.6z"/>
	</g>
	<g>
		<path class="st4" d="M238.8,348.1c0-0.2-0.1-0.2-0.1-0.3c0,0,0,0,0,0S238.8,348.1,238.8,348.1z"/>
		<path class="st4" d="M288,301.4c-6.4-13.3-20.6-21.8-33-20c-15.8-0.2-31.9,12.2-34.2,31.5c-0.6,7.5,1,14.5,4.6,21.1
			c3,5.5,8,9,12.2,13.3c0.6-0.1,1.1-0.1,1.1,0.6c0,0,0.2-0.2,0.2-0.2c5.2,2,10.4,4,16.1,4c12.9,0.6,23.1-4.9,30.2-15.3
			C292.7,325.5,293.8,313.5,288,301.4z"/>
	</g>
	<g>
		<path class="st2" d="M302.9,352.6l38.9,38.9l-11.7,11.7l-38.9-38.9v-6.2l-2.2-2.2c-9.3,8.1-20.3,12.1-33,12.1
			c-14.2,0-26.2-4.9-36.1-14.7c-9.9-9.8-14.9-21.8-14.9-36s5-26.2,14.9-36.1c9.9-9.9,22-14.9,36.1-14.9s26.2,5,36,14.9
			c9.8,9.9,14.7,22,14.7,36.1c0,12.7-4,23.7-12.1,33l2.2,2.2H302.9z M231,342.3c6.8,6.9,15.2,10.3,25,10.3c9.8,0,18.1-3.4,25-10.3
			c6.8-6.8,10.3-15.2,10.3-25s-3.4-18.1-10.3-25c-6.9-6.8-15.2-10.3-25-10.3c-9.8,0-18.1,3.4-25,10.3c-6.9,6.8-10.3,15.2-10.3,25
			S224.1,335.5,231,342.3z"/>
	</g>
</g>
</svg>
