<?xml version="1.0" encoding="UTF-8" standalone="no"?>
<!-- Generator: Adobe Illustrator 16.0.0, SVG Export Plug-In . SVG Version: 6.00 Build 0)  -->

<svg
   xmlns:dc="http://purl.org/dc/elements/1.1/"
   xmlns:cc="http://creativecommons.org/ns#"
   xmlns:rdf="http://www.w3.org/1999/02/22-rdf-syntax-ns#"
   xmlns:svg="http://www.w3.org/2000/svg"
   xmlns="http://www.w3.org/2000/svg"
   xmlns:sodipodi="http://sodipodi.sourceforge.net/DTD/sodipodi-0.dtd"
   xmlns:inkscape="http://www.inkscape.org/namespaces/inkscape"
   version="1.1"
   id="Layer_1"
   x="0px"
   y="0px"
   width="512px"
   height="512px"
   viewBox="0 0 512 512"
   enable-background="new 0 0 512 512"
   xml:space="preserve"
   sodipodi:docname="icon.svg"
   inkscape:version="0.92.1 r15371"><metadata
     id="metadata9"><rdf:RDF><cc:Work
         rdf:about=""><dc:format>image/svg+xml</dc:format><dc:type
           rdf:resource="http://purl.org/dc/dcmitype/StillImage" /><dc:title></dc:title></cc:Work></rdf:RDF></metadata><defs
     id="defs7" /><sodipodi:namedview
     pagecolor="#ffffff"
     bordercolor="#666666"
     borderopacity="1"
     objecttolerance="10"
     gridtolerance="10"
     guidetolerance="10"
     inkscape:pageopacity="0"
     inkscape:pageshadow="2"
     inkscape:window-width="1920"
     inkscape:window-height="1001"
     id="namedview5"
     showgrid="false"
     inkscape:zoom="0.4609375"
     inkscape:cx="-8.6779661"
     inkscape:cy="256"
     inkscape:window-x="-9"
     inkscape:window-y="-9"
     inkscape:window-maximized="1"
     inkscape:current-layer="Layer_1" /><path
     inkscape:connector-curvature="0"
     d="M 493.25,402.75 393.094,302.563 C 407.625,274.172 416,242.094 416,208 416,93.125 322.875,0 208,0 93.109,0 0,93.125 0,208 c 0,114.875 93.109,208 208,208 33.953,0 65.906,-8.313 94.219,-22.719 -0.031,0 -0.094,0.031 -0.125,0.063 0.156,-0.094 0.344,-0.156 0.531,-0.25 L 402.75,493.25 c 25.031,25 65.563,25 90.5,0 25,-24.969 25,-65.5 0,-90.5 z M 48,208 c 0,-88.219 71.781,-160 160,-160 88.219,0 160,71.781 160,160 0,88.219 -71.781,160 -160,160 C 119.781,368 48,296.219 48,208 Z m 411.313,228.656 c -6.25,6.25 -16.375,6.25 -22.625,0 l -45.25,-45.25 c -6.25,-6.25 -6.25,-16.375 0,-22.625 6.25,-6.25 16.375,-6.25 22.625,0 l 45.25,45.25 c 6.281,6.25 6.281,16.375 0,22.625 z"
     id="path2"
     style="fill:#f8eded;fill-opacity:1;stroke:#000000;stroke-opacity:1" /><path
     inkscape:connector-curvature="0"
     d="m 193.66584,257.76561 99.32114,-123.74576 c -3.84304,-2.90362 -42.1026,-34.16032 -99.40654,-34.16032 -57.38933,0 -95.5635,31.2567 -99.40653,34.16032 l 99.32114,123.74576 0.0854,0.0854 z"
     id="path6279"
     style="fill:#fffefe;fill-opacity:1;stroke:#958989;stroke-width:4.99483871;stroke-miterlimit:4;stroke-dasharray:none;stroke-opacity:1" /><path
     inkscape:connector-curvature="0"
     style="fill:none;stroke-width:13.92655373"
     d="M 38.20339,64.881355 H 372.44068 V 399.11864 H 38.20339 Z"
     id="path6281" /></svg>